<svg width="38" height="38" viewBox="0 0 38 38" fill="none" xmlns="http://www.w3.org/2000/svg">
<g clip-path="url(#clip0)">
<path d="M37.3494 6.79681C37.0036 3.55612 34.4442 0.996155 31.2032 0.650574C23.0757 -0.216858 14.9243 -0.216858 6.7971 0.650574C3.55612 0.996445 0.996445 3.55612 0.650574 6.79681C-0.216858 14.9241 -0.216858 23.0757 0.650574 31.2029C0.996445 34.4439 3.55612 37.0036 6.79681 37.3494C14.9241 38.2169 23.0757 38.2169 31.2032 37.3494C34.4442 37.0036 37.0036 34.4439 37.3494 31.2029C38.2169 23.0757 38.2169 14.9243 37.3494 6.79681Z" fill="url(#paint0_radial)"/>
<path d="M35.2826 8.17143C34.9759 5.29574 32.7047 3.02424 29.8287 2.71722C22.6167 1.94778 15.3833 1.94778 8.1713 2.71722C5.29562 3.02424 3.02412 5.29574 2.71709 8.17143C1.94765 15.3834 1.94765 22.6168 2.71709 29.8285C3.02412 32.7045 5.29562 34.976 8.1713 35.2827C15.3833 36.0525 22.6167 36.0525 29.8284 35.2827C32.7044 34.976 34.9759 32.7045 35.2826 29.8285C36.0523 22.6168 36.0523 15.3834 35.2826 8.17143Z" fill="url(#paint1_linear)"/>
<path d="M0.569336 30.415C0.595429 30.6777 0.622391 30.9404 0.650513 31.203C0.996384 34.4437 3.55606 37.0034 6.79704 37.3493C14.9243 38.2167 23.0759 38.2167 31.2031 37.3493C34.4441 37.0034 37.0035 34.4437 37.3494 31.203C37.3775 30.9404 37.4044 30.6777 37.4308 30.415H0.569336Z" fill="url(#paint2_linear)"/>
<path d="M37.3493 31.2028C37.8155 26.8358 38.0307 22.4618 37.9959 18.0884L29.31 9.40249C28.2248 8.16367 26.6398 7.39047 24.7774 7.32349C20.9473 7.18549 17.105 7.19245 13.2744 7.32407C10.0928 7.43366 7.86798 9.57209 7.29742 12.7151C7.19682 13.27 7.13652 13.8321 7.05737 14.3911V23.6052C7.10115 23.9038 7.16551 24.201 7.18552 24.5014C7.31308 26.4131 8.09875 28.0505 9.3567 29.1583L18.1957 37.997C22.5334 38.0274 26.8715 37.8117 31.2031 37.3493C34.4441 37.0035 37.0035 34.4438 37.3493 31.2028Z" fill="url(#paint3_linear)"/>
<path d="M37.3494 31.203C37.0038 34.4434 34.4435 37.0037 31.2031 37.3492C26.8721 37.8114 22.5332 38.0274 18.196 37.9969L9.37036 29.1713C10.3935 30.0668 11.7271 30.6122 13.2747 30.6704C17.1045 30.8142 20.9476 30.8105 24.7774 30.6725C28.2413 30.5472 30.748 27.9835 30.8561 24.5195C30.9715 20.8417 30.9715 17.1542 30.8561 13.4763C30.8068 11.8783 30.2458 10.4722 29.3158 9.4082L37.9962 18.0886C38.0304 22.4614 37.8153 26.836 37.3494 31.203Z" fill="url(#paint4_linear)"/>
<path d="M23.4838 14.8853C22.3711 13.6737 20.7746 12.9136 19 12.9136C15.6387 12.9136 12.9135 15.6388 12.9135 19.0001C12.9135 20.7747 13.6736 22.3712 14.8852 23.4839L28.9673 37.5661C29.7127 37.5011 30.4581 37.4289 31.2029 37.3495C34.4438 37.0036 37.0035 34.444 37.3494 31.203C37.4288 30.4582 37.501 29.7128 37.566 28.9674L23.4838 14.8853Z" fill="url(#paint5_linear)"/>
<path d="M37.9264 23.0934L26.593 11.7603C26.3286 11.4133 25.912 11.188 25.442 11.188C24.6424 11.188 23.9939 11.8362 23.9939 12.6361C23.9939 13.1061 24.2192 13.5227 24.5662 13.7871L37.7238 26.945C37.8131 25.6615 37.8806 24.3775 37.9264 23.0934Z" fill="url(#paint6_linear)"/>
<path d="M7.05737 14.3911C7.13652 13.8321 7.19682 13.27 7.29742 12.7151C7.86769 9.57209 10.0928 7.43366 13.2744 7.32407C17.105 7.19245 20.9473 7.18549 24.7774 7.32349C28.2402 7.44816 30.7479 10.0122 30.8561 13.4761C30.9712 17.1543 30.9712 20.8415 30.8561 24.5196C30.7479 27.9836 28.241 30.5473 24.7777 30.6723C20.9476 30.8105 17.1044 30.814 13.2746 30.6702C9.81129 30.54 7.41716 27.9702 7.18552 24.5011C7.16551 24.201 7.10115 23.9036 7.05737 23.6049C7.05737 20.5336 7.05737 17.4622 7.05737 14.3911ZM19.0031 28.6193C20.756 28.6193 22.5105 28.6718 24.261 28.6072C27.0057 28.5054 28.6939 26.8674 28.7579 24.1253C28.8374 20.7087 28.8374 17.2874 28.7579 13.8704C28.6939 11.1289 27.0045 9.45265 24.261 9.39437C20.7789 9.32073 17.2929 9.32131 13.8107 9.39437C11.0881 9.45149 9.39497 11.0939 9.32104 13.8052C9.22711 17.265 9.22711 20.731 9.32104 24.1909C9.39497 26.9019 11.0881 28.5063 13.811 28.6072C15.5395 28.6715 17.2723 28.6193 19.0031 28.6193Z" fill="url(#paint7_linear)"/>
<path d="M7.05737 14.3911C7.13652 13.8321 7.19682 13.27 7.29742 12.7151C7.86769 9.57209 10.0928 7.43366 13.2744 7.32407C17.105 7.19245 20.9473 7.18549 24.7774 7.32349C28.2402 7.44816 30.7479 10.0122 30.8561 13.4761C30.9712 17.1543 30.9712 20.8415 30.8561 24.5196C30.7479 27.9836 28.241 30.5473 24.7777 30.6723C20.9476 30.8105 17.1044 30.814 13.2746 30.6702C9.81129 30.54 7.41716 27.9702 7.18552 24.5011C7.16551 24.201 7.10115 23.9036 7.05737 23.6049C7.05737 20.5336 7.05737 17.4622 7.05737 14.3911ZM19.0031 28.6193C20.756 28.6193 22.5105 28.6718 24.261 28.6072C27.0057 28.5054 28.6939 26.8674 28.7579 24.1253C28.8374 20.7087 28.8374 17.2874 28.7579 13.8704C28.6939 11.1289 27.0045 9.45265 24.261 9.39437C20.7789 9.32073 17.2929 9.32131 13.8107 9.39437C11.0881 9.45149 9.39497 11.0939 9.32104 13.8052C9.22711 17.265 9.22711 20.731 9.32104 24.1909C9.39497 26.9019 11.0881 28.5063 13.811 28.6072C15.5395 28.6715 17.2723 28.6193 19.0031 28.6193Z" fill="white"/>
<path d="M18.9998 12.9136C15.6386 12.9136 12.9133 15.6385 12.9133 18.9998C12.9133 22.3614 15.6386 25.0863 18.9998 25.0863C22.3614 25.0863 25.0864 22.3614 25.0864 18.9998C25.0864 15.6385 22.3614 12.9136 18.9998 12.9136ZM18.9998 22.9908C16.7956 22.9908 15.0089 21.204 15.0089 18.9998C15.0089 16.7956 16.7956 15.0088 18.9998 15.0088C21.2041 15.0088 22.9908 16.7956 22.9908 18.9998C22.9908 21.204 21.2041 22.9908 18.9998 22.9908Z" fill="white"/>
<path d="M26.8897 12.6356C26.8897 13.4352 26.2415 14.0835 25.4419 14.0835C24.6423 14.0835 23.9938 13.4352 23.9938 12.6356C23.9938 11.8358 24.6423 11.1875 25.4419 11.1875C26.2415 11.1875 26.8897 11.8358 26.8897 12.6356Z" fill="white"/>
</g>
<defs>
<radialGradient id="paint0_radial" cx="0" cy="0" r="1" gradientUnits="userSpaceOnUse" gradientTransform="translate(7.78979 33.209) scale(41.9073)">
<stop stop-color="#FAE100"/>
<stop offset="0.0544" stop-color="#FADC04"/>
<stop offset="0.1167" stop-color="#FBCE0E"/>
<stop offset="0.1829" stop-color="#FCB720"/>
<stop offset="0.2514" stop-color="#FE9838"/>
<stop offset="0.3054" stop-color="#FF7950"/>
<stop offset="0.4922" stop-color="#FF1C74"/>
<stop offset="1" stop-color="#6C1CD1"/>
</radialGradient>
<linearGradient id="paint1_linear" x1="14.5745" y1="16.5108" x2="-49.802" y2="-19.701" gradientUnits="userSpaceOnUse">
<stop stop-color="#A1B5D8" stop-opacity="0"/>
<stop offset="0.3094" stop-color="#90A2BD" stop-opacity="0.309804"/>
<stop offset="0.7554" stop-color="#7C8B9C" stop-opacity="0.756863"/>
<stop offset="1" stop-color="#748290"/>
</linearGradient>
<linearGradient id="paint2_linear" x1="19" y1="33.5442" x2="19" y2="39.4674" gradientUnits="userSpaceOnUse">
<stop stop-color="#FAE100" stop-opacity="0"/>
<stop offset="0.3068" stop-color="#FCA800" stop-opacity="0.305882"/>
<stop offset="0.6275" stop-color="#FE7300" stop-opacity="0.627451"/>
<stop offset="0.8685" stop-color="#FF5200" stop-opacity="0.866667"/>
<stop offset="1" stop-color="#FF4500"/>
</linearGradient>
<linearGradient id="paint3_linear" x1="16.8381" y1="16.7843" x2="7.43373" y2="7.37993" gradientUnits="userSpaceOnUse">
<stop stop-color="#833AB4" stop-opacity="0"/>
<stop offset="1" stop-color="#833AB4"/>
</linearGradient>
<linearGradient id="paint4_linear" x1="26.0433" y1="34.7555" x2="21.3494" y2="12.6272" gradientUnits="userSpaceOnUse">
<stop stop-color="#833AB4" stop-opacity="0"/>
<stop offset="1" stop-color="#833AB4"/>
</linearGradient>
<linearGradient id="paint5_linear" x1="27.8294" y1="27.8295" x2="8.97607" y2="8.97617" gradientUnits="userSpaceOnUse">
<stop stop-color="#833AB4" stop-opacity="0"/>
<stop offset="1" stop-color="#833AB4"/>
</linearGradient>
<linearGradient id="paint6_linear" x1="29.2279" y1="16.422" x2="22.9935" y2="10.1875" gradientUnits="userSpaceOnUse">
<stop stop-color="#833AB4" stop-opacity="0"/>
<stop offset="1" stop-color="#833AB4"/>
</linearGradient>
<linearGradient id="paint7_linear" x1="26.5449" y1="11.5075" x2="11.173" y2="26.8793" gradientUnits="userSpaceOnUse">
<stop stop-color="#833AB4"/>
<stop offset="0.0922" stop-color="#9C3495"/>
<stop offset="0.2927" stop-color="#DC2546"/>
<stop offset="0.392" stop-color="#FD1D1D"/>
<stop offset="0.5589" stop-color="#FC6831"/>
<stop offset="0.6887" stop-color="#FC9B40"/>
<stop offset="0.7521" stop-color="#FCAF45"/>
<stop offset="0.7806" stop-color="#FDB750"/>
<stop offset="0.8656" stop-color="#FECB6A"/>
<stop offset="0.9415" stop-color="#FFD87A"/>
<stop offset="1" stop-color="#FFDC80"/>
</linearGradient>
<clipPath id="clip0">
<rect width="38" height="38" fill="white"/>
</clipPath>
</defs>
</svg>
