<svg width="158" height="159" viewBox="0 0 158 159" fill="none" xmlns="http://www.w3.org/2000/svg">
<g clip-path="url(#clip0)">
<path d="M126.039 73.876C126.039 71.3196 123.966 69.2471 121.41 69.2471C118.853 69.2471 116.781 71.3196 116.781 73.876C116.781 94.7082 99.8326 111.657 79.0001 111.657C58.1675 111.657 41.2192 94.7085 41.2192 73.876C41.2192 71.3196 39.1467 69.2471 36.5903 69.2471C34.0339 69.2471 31.9614 71.3196 31.9614 73.876C31.9614 98.2512 50.5986 118.354 74.3712 120.687V130.249H69.7037C56.8992 130.249 46.482 140.666 46.482 153.471C46.482 156.027 48.5545 158.1 51.1109 158.1H106.889C109.446 158.1 111.518 156.027 111.518 153.471C111.518 140.666 101.101 130.249 88.2965 130.249H83.629V120.687C107.401 118.354 126.039 98.2512 126.039 73.876Z" fill="white"/>
<path d="M65.3819 46.582C67.9383 46.582 70.0108 48.6545 70.0108 51.2109C70.0108 53.7673 67.9383 55.8398 65.3819 55.8398H51.1304V65.1748H65.3819C67.9383 65.1748 70.0108 67.2473 70.0108 69.8037C70.0108 72.3601 67.9383 74.4326 65.3819 74.4326H51.1304V74.4521C51.1304 89.8194 63.6328 102.322 79.0005 102.322C94.3681 102.322 106.87 89.8194 106.87 74.4521V74.4326H92.6184C90.062 74.4326 87.9895 72.3601 87.9895 69.8037C87.9895 67.2473 90.062 65.1748 92.6184 65.1748H106.87V55.8398H92.6184C90.062 55.8398 87.9895 53.7673 87.9895 51.2109C87.9895 48.6545 90.062 46.582 92.6184 46.582H106.87V37.2471H92.6184C90.062 37.2471 87.9895 35.1746 87.9895 32.6182C87.9895 30.0618 90.062 27.9893 92.6184 27.9893H106.87V27.9701C106.87 12.6025 94.3675 0.100098 79.0002 0.100098C63.6328 0.100098 51.1301 12.6025 51.1301 27.9701V27.9893H65.3816C67.938 27.9893 70.0105 30.0618 70.0105 32.6182C70.0105 35.1746 67.938 37.2471 65.3816 37.2471H51.1301V46.582H65.3819Z" fill="white"/>
</g>
<defs>
<clipPath id="clip0">
<rect width="158" height="158" fill="white" transform="translate(0 0.100098)"/>
</clipPath>
</defs>
</svg>
