<svg width="239" height="239" viewBox="0 0 239 239" fill="none" xmlns="http://www.w3.org/2000/svg">
<g clip-path="url(#clip0)">
<path d="M238.3 182.867V32.1338H0.299805V182.867H91.5331V198.734H63.7665V206.667H182.766V198.734H147.066V182.867H238.3ZM139.133 198.734H99.4665V182.867H139.133V198.734ZM8.23314 174.934V40.0671H230.366V174.934H8.23314Z" fill="white"/>
<g clip-path="url(#clip1)">
<path d="M118.5 151.805C144.181 151.805 165 130.986 165 105.305C165 79.6235 144.181 58.8047 118.5 58.8047C92.8188 58.8047 72 79.6235 72 105.305C72 130.986 92.8188 151.805 118.5 151.805Z" fill="#D42428"/>
<path d="M151.379 72.4189C169.538 90.5799 169.54 120.023 151.379 138.184C133.22 156.344 103.775 156.344 85.6138 138.184L151.379 72.4189Z" fill="#CC202D"/>
<path d="M164.065 114.618L141.051 91.6045L113.908 94.6949L97.4895 120.113L128.169 150.792C146.206 146.976 160.387 132.708 164.065 114.618Z" fill="#BA202E"/>
<path d="M142.834 96.3316C142.834 92.4334 139.676 89.2739 135.78 89.2739H102.685C98.7899 89.2739 95.6326 92.4342 95.6326 96.3316V115.257C95.6326 119.155 98.7905 122.315 102.685 122.315H135.779C139.676 122.315 142.833 119.154 142.833 115.257V96.3316H142.834ZM114.512 113.778V96.0027L127.992 104.891L114.512 113.778Z" fill="white"/>
</g>
</g>
<defs>
<clipPath id="clip0">
<rect width="238" height="238" fill="white" transform="translate(0.299805 0.400391)"/>
</clipPath>
<clipPath id="clip1">
<rect width="93" height="93" fill="white" transform="translate(72 58.8047)"/>
</clipPath>
</defs>
</svg>
