<svg width="370" height="386" viewBox="0 0 370 386" fill="none" xmlns="http://www.w3.org/2000/svg">
<circle cx="326.029" cy="341.94" r="43.4706" transform="rotate(180 326.029 341.94)" fill="#2D3FA2" fill-opacity="0.51"/>
<circle cx="326.029" cy="243.144" r="29.639" transform="rotate(180 326.029 243.144)" fill="#2D3FA2" fill-opacity="0.51"/>
<circle cx="218.341" cy="214.492" r="20.7473" transform="rotate(180 218.341 214.492)" fill="#2D3FA2" fill-opacity="0.51"/>
<circle cx="134.364" cy="168.058" r="11.8556" transform="rotate(180 134.364 168.058)" fill="#2D3FA2" fill-opacity="0.51"/>
<circle cx="83.9773" cy="119.648" r="6.91578" transform="rotate(180 83.9773 119.648)" fill="#2D3FA2" fill-opacity="0.51"/>
<circle cx="228.221" cy="297.482" r="28.6511" transform="rotate(180 228.221 297.482)" fill="#2D3FA2" fill-opacity="0.51"/>
<circle cx="144.243" cy="247.096" r="21.7353" transform="rotate(180 144.243 247.096)" fill="#2D3FA2" fill-opacity="0.51"/>
<circle cx="71.1337" cy="195.721" r="19.7594" transform="rotate(180 71.1337 195.721)" fill="#2D3FA2" fill-opacity="0.51"/>
<circle cx="14.8195" cy="141.383" r="14.8195" transform="rotate(180 14.8195 141.383)" fill="#2D3FA2" fill-opacity="0.51"/>
<circle cx="284.18" cy="155.056" r="28.9804" transform="rotate(173.736 284.18 155.056)" fill="#2D3FA2" fill-opacity="0.51"/>
<circle cx="276.994" cy="89.5842" r="19.7594" transform="rotate(173.736 276.994 89.5842)" fill="#2D3FA2" fill-opacity="0.51"/>
<circle cx="203.547" cy="78.4302" r="13.8316" transform="rotate(173.736 203.547 78.4302)" fill="#2D3FA2" fill-opacity="0.51"/>
<circle cx="144.518" cy="53.767" r="7.90374" transform="rotate(173.736 144.518 53.767)" fill="#2D3FA2" fill-opacity="0.51"/>
<circle cx="107.607" cy="25.3504" r="4.61052" transform="rotate(173.736 107.607 25.3504)" fill="#2D3FA2" fill-opacity="0.51"/>
<circle cx="216.13" cy="132.708" r="19.1007" transform="rotate(173.736 216.13 132.708)" fill="#2D3FA2" fill-opacity="0.51"/>
<circle cx="156.815" cy="105.425" r="14.4902" transform="rotate(173.736 156.815 105.425)" fill="#2D3FA2" fill-opacity="0.51"/>
<circle cx="104.629" cy="76.6977" r="13.1729" transform="rotate(173.736 104.629 76.6977)" fill="#2D3FA2" fill-opacity="0.51"/>
<circle cx="63.3581" cy="44.7845" r="9.87968" transform="rotate(173.736 63.3581 44.7845)" fill="#2D3FA2" fill-opacity="0.51"/>
</svg>
