<svg width="370" height="387" viewBox="0 0 370 387" fill="none" xmlns="http://www.w3.org/2000/svg">
<circle cx="43.4706" cy="44.1639" r="43.4706" fill="#2D3FA2" fill-opacity="0.51"/>
<circle cx="43.4706" cy="142.96" r="29.639" fill="#2D3FA2" fill-opacity="0.51"/>
<circle cx="151.159" cy="171.612" r="20.7473" fill="#2D3FA2" fill-opacity="0.51"/>
<circle cx="235.136" cy="218.046" r="11.8556" fill="#2D3FA2" fill-opacity="0.51"/>
<circle cx="285.523" cy="266.457" r="6.91578" fill="#2D3FA2" fill-opacity="0.51"/>
<circle cx="141.279" cy="88.6227" r="28.6511" fill="#2D3FA2" fill-opacity="0.51"/>
<circle cx="225.257" cy="139.009" r="21.7353" fill="#2D3FA2" fill-opacity="0.51"/>
<circle cx="298.366" cy="190.383" r="19.7594" fill="#2D3FA2" fill-opacity="0.51"/>
<circle cx="354.68" cy="244.722" r="14.8195" fill="#2D3FA2" fill-opacity="0.51"/>
<circle cx="85.3196" cy="231.049" r="28.9804" transform="rotate(-6.26357 85.3196 231.049)" fill="#2D3FA2" fill-opacity="0.51"/>
<circle cx="92.5057" cy="296.521" r="19.7594" transform="rotate(-6.26357 92.5057 296.521)" fill="#2D3FA2" fill-opacity="0.51"/>
<circle cx="165.953" cy="307.674" r="13.8316" transform="rotate(-6.26357 165.953 307.674)" fill="#2D3FA2" fill-opacity="0.51"/>
<circle cx="224.982" cy="332.338" r="7.90374" transform="rotate(-6.26357 224.982 332.338)" fill="#2D3FA2" fill-opacity="0.51"/>
<circle cx="261.893" cy="360.754" r="4.61052" transform="rotate(-6.26357 261.893 360.754)" fill="#2D3FA2" fill-opacity="0.51"/>
<circle cx="153.37" cy="253.397" r="19.1007" transform="rotate(-6.26357 153.37 253.397)" fill="#2D3FA2" fill-opacity="0.51"/>
<circle cx="212.686" cy="280.679" r="14.4902" transform="rotate(-6.26357 212.686 280.679)" fill="#2D3FA2" fill-opacity="0.51"/>
<circle cx="264.871" cy="309.407" r="13.1729" transform="rotate(-6.26357 264.871 309.407)" fill="#2D3FA2" fill-opacity="0.51"/>
<circle cx="306.142" cy="341.32" r="9.87968" transform="rotate(-6.26357 306.142 341.32)" fill="#2D3FA2" fill-opacity="0.51"/>
</svg>
