<svg width="30" height="29" viewBox="0 0 30 29" fill="none" xmlns="http://www.w3.org/2000/svg">
<path d="M7.25 3.62499C7.25 5.6278 5.62781 7.24998 3.625 7.24998C1.62219 7.24998 0 5.6278 0 3.62499C0 1.62218 1.62219 0 3.625 0C5.62781 0 7.25 1.62218 7.25 3.62499Z" fill="white"/>
<path d="M7.25 14.4999C7.25 16.5027 5.62781 18.1249 3.625 18.1249C1.62219 18.1249 0 16.5027 0 14.4999C0 12.4971 1.62219 10.8749 3.625 10.8749C5.62781 10.8749 7.25 12.4971 7.25 14.4999Z" fill="white"/>
<path d="M3.625 29C5.62781 29 7.25 27.3778 7.25 25.375C7.25 23.3722 5.62781 21.75 3.625 21.75C1.62219 21.75 0 23.3722 0 25.375C0 27.3778 1.62219 29 3.625 29Z" fill="white"/>
<path d="M18.123 3.62499C18.123 5.6278 16.5008 7.24998 14.498 7.24998C12.4952 7.24998 10.873 5.6278 10.873 3.62499C10.873 1.62218 12.4952 0 14.498 0C16.5008 0 18.123 1.62218 18.123 3.62499Z" fill="white"/>
<path d="M14.498 18.1249C16.5008 18.1249 18.123 16.5027 18.123 14.4999C18.123 12.4971 16.5008 10.8749 14.498 10.8749C12.4952 10.8749 10.873 12.4971 10.873 14.4999C10.873 16.5027 12.4952 18.1249 14.498 18.1249Z" fill="white"/>
<path d="M18.123 25.375C18.123 27.3778 16.5008 29 14.498 29C12.4952 29 10.873 27.3778 10.873 25.375C10.873 23.3722 12.4952 21.75 14.498 21.75C16.5008 21.75 18.123 23.3722 18.123 25.375Z" fill="white"/>
<path d="M25.377 7.24998C27.3798 7.24998 29.002 5.6278 29.002 3.62499C29.002 1.62218 27.3798 0 25.377 0C23.3741 0 21.752 1.62218 21.752 3.62499C21.752 5.6278 23.3741 7.24998 25.377 7.24998Z" fill="white"/>
<path d="M29.002 14.4999C29.002 16.5027 27.3798 18.1249 25.377 18.1249C23.3741 18.1249 21.752 16.5027 21.752 14.4999C21.752 12.4971 23.3741 10.8749 25.377 10.8749C27.3798 10.8749 29.002 12.4971 29.002 14.4999Z" fill="white"/>
<path d="M25.377 29C27.3798 29 29.002 27.3778 29.002 25.375C29.002 23.3722 27.3798 21.75 25.377 21.75C23.3741 21.75 21.752 23.3722 21.752 25.375C21.752 27.3778 23.3741 29 25.377 29Z" fill="white"/>
</svg>
